<svg xmlns="http://www.w3.org/2000/svg" viewBox="0 0 1200 750" role="img" aria-labelledby="title desc">
  <title id="title">OOPBuy safety and review checklist illustration</title>
  <desc id="desc">A shield, checklist, parcel and quality-control photograph representing an evidence-based platform review.</desc>
  <defs>
    <linearGradient id="bg2" x1="0" y1="0" x2="1" y2="1"><stop stop-color="#fff7fb"/><stop offset="1" stop-color="#f2c2d7"/></linearGradient>
    <linearGradient id="shield" x1="0" y1="0" x2="1" y2="1"><stop stop-color="#ff4f9e"/><stop offset="1" stop-color="#e90068"/></linearGradient>
    <filter id="s2" x="-20%" y="-20%" width="140%" height="150%"><feDropShadow dx="0" dy="18" stdDeviation="18" flood-color="#5f1939" flood-opacity=".18"/></filter>
  </defs>
  <rect width="1200" height="750" rx="36" fill="url(#bg2)"/>
  <path d="M0 610C250 480 420 535 630 430s355-122 570-248v568H0z" fill="#fff" opacity=".55"/>
  <g filter="url(#s2)">
    <rect x="110" y="105" width="485" height="520" rx="32" fill="#fff"/>
    <rect x="160" y="155" width="250" height="28" rx="14" fill="#11131a"/>
    <rect x="160" y="207" width="365" height="12" rx="6" fill="#d8c7d0"/>
    <g fill="none" stroke="#f40875" stroke-width="11" stroke-linecap="round" stroke-linejoin="round">
      <path d="M166 291l20 21 38-47"/><path d="M166 391l20 21 38-47"/><path d="M166 491l20 21 38-47"/>
    </g>
    <g fill="#b7a4ae"><rect x="255" y="278" width="250" height="14" rx="7"/><rect x="255" y="309" width="180" height="10" rx="5"/><rect x="255" y="378" width="250" height="14" rx="7"/><rect x="255" y="409" width="205" height="10" rx="5"/><rect x="255" y="478" width="250" height="14" rx="7"/><rect x="255" y="509" width="160" height="10" rx="5"/></g>
  </g>
  <g transform="translate(610 115)" filter="url(#s2)">
    <path d="M245 10c82 48 150 56 210 60v182c0 142-86 235-210 300C121 487 35 394 35 252V70c60-4 128-12 210-60z" fill="url(#shield)"/>
    <path d="M157 277l58 61 126-153" fill="none" stroke="#fff" stroke-width="34" stroke-linecap="round" stroke-linejoin="round"/>
  </g>
  <g transform="translate(740 490)" filter="url(#s2)">
    <rect width="300" height="145" rx="24" fill="#11131a"/>
    <circle cx="64" cy="72" r="34" fill="#ff1683"/>
    <circle cx="64" cy="72" r="14" fill="#fff"/>
    <rect x="120" y="44" width="135" height="16" rx="8" fill="#fff"/>
    <rect x="120" y="76" width="95" height="11" rx="6" fill="#fff" opacity=".55"/>
  </g>
</svg>
