<svg xmlns="http://www.w3.org/2000/svg" viewBox="0 0 64 64">
  <defs>
    <linearGradient id="red" x1="8" y1="6" x2="56" y2="58" gradientUnits="userSpaceOnUse">
      <stop stop-color="#ff5058"/>
      <stop offset="1" stop-color="#e5232d"/>
    </linearGradient>
    <filter id="shadow" x="-20%" y="-20%" width="140%" height="140%">
      <feDropShadow dx="0" dy="2" stdDeviation="2" flood-color="#9f1017" flood-opacity=".3"/>
    </filter>
  </defs>
  <rect x="3" y="3" width="58" height="58" rx="12" fill="url(#red)" filter="url(#shadow)"/>
  <path fill="#fff" d="M43.6 18.2c-3-2.9-7.2-4.4-12.1-4.4-7.8 0-13 4-13 10.2 0 5.5 3.8 8.4 11.2 10l4.5 1c3.3.7 4.6 1.8 4.6 3.5 0 2.2-2.3 3.7-5.9 3.7-4 0-7.2-1.5-10.1-4.7l-5.2 5.2c3.7 4.5 8.8 6.8 15.2 6.8 8.6 0 14.2-4.3 14.2-10.9 0-5.7-3.6-8.7-11.1-10.4l-4.7-1c-3.2-.7-4.4-1.7-4.4-3.3 0-2 2-3.3 5.1-3.3 3 0 5.6 1 7.6 3l4.1-5.4Z"/>
</svg>
