<svg xmlns="http://www.w3.org/2000/svg" viewBox="0 0 1200 675" role="img" aria-labelledby="title desc">
  <title id="title">CSSBuy tracking diagnostic guide</title>
  <desc id="desc">A parcel route with scan checkpoints and a diagnostic panel.</desc>
  <defs><linearGradient id="bg" x1="0" y1="0" x2="1" y2="1"><stop stop-color="#f6ead8"/><stop offset="1" stop-color="#fffdfa"/></linearGradient></defs>
  <rect width="1200" height="675" fill="url(#bg)"/>
  <rect x="80" y="76" width="1040" height="523" rx="34" fill="#fffefa" stroke="#dfc9a8" stroke-width="4"/>
  <text x="130" y="155" fill="#a76308" font-family="Arial,sans-serif" font-size="24" font-weight="700">CSSBUY PARCEL CONTROL</text>
  <text x="130" y="225" fill="#181512" font-family="Georgia,serif" font-size="56" font-weight="700">Tracking Not Updating?</text>
  <text x="130" y="276" fill="#6b645b" font-family="Arial,sans-serif" font-size="25">Read the last scan, identify the owner, then choose the next action.</text>
  <path d="M155 430 C290 320 390 510 525 405 S760 320 905 418" fill="none" stroke="#d2b68d" stroke-width="10" stroke-linecap="round"/>
  <g fill="#a76308" stroke="#fff" stroke-width="8"><circle cx="155" cy="430" r="24"/><circle cx="355" cy="408" r="24"/><circle cx="555" cy="388" r="24"/><circle cx="755" cy="368" r="24"/><circle cx="905" cy="418" r="24"/></g>
  <g font-family="Arial,sans-serif" font-size="18" font-weight="700" fill="#50473e"><text x="120" y="486">SUBMITTED</text><text x="311" y="354">DISPATCHED</text><text x="515" y="444">EXPORT</text><text x="710" y="320">CUSTOMS</text><text x="867" y="475">DELIVERY</text></g>
  <rect x="936" y="310" width="130" height="205" rx="18" fill="#f4eadb" stroke="#dfc9a8" stroke-width="3"/>
  <path d="M970 355h63M970 394h63M970 433h42" stroke="#a76308" stroke-width="10" stroke-linecap="round"/>
  <circle cx="1035" cy="470" r="22" fill="#378541"/><path d="m1024 470 8 8 16-19" fill="none" stroke="#fff" stroke-width="7" stroke-linecap="round"/>
</svg>
